<?xml version="1.0" encoding="UTF-8"?>
<svg id="Layer_2" data-name="Layer 2" xmlns="http://www.w3.org/2000/svg" viewBox="0 0 536.11 176.86">
  <defs>
    <style>
      .cls-1 {
        fill: #fff;
      }

      .cls-2 {
        fill: #002b56;
      }
    </style>
  </defs>
  <g id="Layer_1-2" data-name="Layer 1">
    <g>
      <g>
        <path class="cls-1" d="M2.07,104.2L47.73,1.76h23.42l45.81,102.44h-24.88L54.61,13.76h9.37L26.36,104.2H2.07ZM24.9,82.25l6.29-18h52.69l6.44,18H24.9Z"/>
        <path class="cls-1" d="M161.29,105.96c-8.2,0-16.05-1.1-23.56-3.29-7.51-2.19-13.56-5.05-18.15-8.56l8.05-17.86c4.39,3.12,9.59,5.69,15.59,7.68,6,2,12.07,3,18.22,3,4.68,0,8.46-.46,11.34-1.39,2.88-.93,5-2.22,6.37-3.88,1.37-1.66,2.05-3.56,2.05-5.71,0-2.73-1.08-4.9-3.22-6.51-2.15-1.61-4.98-2.93-8.49-3.95s-7.39-2-11.63-2.93c-4.24-.93-8.49-2.07-12.73-3.44-4.24-1.37-8.12-3.12-11.63-5.27-3.51-2.15-6.37-4.98-8.56-8.49-2.2-3.51-3.29-8-3.29-13.46,0-5.85,1.58-11.2,4.76-16.02,3.17-4.83,7.95-8.68,14.34-11.56,6.39-2.88,14.42-4.32,24.07-4.32,6.44,0,12.78.76,19.03,2.27,6.24,1.51,11.76,3.78,16.54,6.8l-7.32,18c-4.78-2.73-9.56-4.76-14.34-6.07-4.78-1.32-9.46-1.98-14.05-1.98s-8.34.54-11.27,1.61c-2.93,1.08-5.03,2.46-6.29,4.17-1.27,1.71-1.9,3.68-1.9,5.93,0,2.63,1.07,4.76,3.22,6.37,2.14,1.61,4.98,2.9,8.49,3.88,3.51.98,7.39,1.95,11.63,2.93,4.24.98,8.49,2.1,12.73,3.37,4.24,1.27,8.12,2.98,11.63,5.12,3.51,2.15,6.37,4.98,8.56,8.49,2.19,3.51,3.29,7.95,3.29,13.32,0,5.76-1.61,11.03-4.83,15.81-3.22,4.78-8.03,8.63-14.42,11.56-6.39,2.93-14.47,4.39-24.22,4.39Z"/>
        <path class="cls-1" d="M254.66,105.96c-8.2,0-16.05-1.1-23.56-3.29-7.51-2.19-13.56-5.05-18.15-8.56l8.05-17.86c4.39,3.12,9.59,5.69,15.59,7.68,6,2,12.07,3,18.22,3,4.68,0,8.46-.46,11.34-1.39,2.88-.93,5-2.22,6.37-3.88,1.37-1.66,2.05-3.56,2.05-5.71,0-2.73-1.08-4.9-3.22-6.51-2.15-1.61-4.98-2.93-8.49-3.95s-7.39-2-11.63-2.93c-4.24-.93-8.49-2.07-12.73-3.44-4.24-1.37-8.12-3.12-11.63-5.27-3.51-2.15-6.37-4.98-8.56-8.49-2.2-3.51-3.29-8-3.29-13.46,0-5.85,1.58-11.2,4.76-16.02,3.17-4.83,7.95-8.68,14.34-11.56,6.39-2.88,14.42-4.32,24.07-4.32,6.44,0,12.78.76,19.03,2.27,6.24,1.51,11.76,3.78,16.54,6.8l-7.32,18c-4.78-2.73-9.56-4.76-14.34-6.07-4.78-1.32-9.46-1.98-14.05-1.98s-8.34.54-11.27,1.61c-2.93,1.08-5.03,2.46-6.29,4.17-1.27,1.71-1.9,3.68-1.9,5.93,0,2.63,1.07,4.76,3.22,6.37,2.14,1.61,4.98,2.9,8.49,3.88,3.51.98,7.39,1.95,11.63,2.93,4.24.98,8.49,2.1,12.73,3.37,4.24,1.27,8.12,2.98,11.63,5.12,3.51,2.15,6.37,4.98,8.56,8.49,2.19,3.51,3.29,7.95,3.29,13.32,0,5.76-1.61,11.03-4.83,15.81-3.22,4.78-8.03,8.63-14.42,11.56-6.39,2.93-14.47,4.39-24.22,4.39Z"/>
        <path class="cls-1" d="M314.37,104.2V1.76h19.61l60.44,73.76h-9.51V1.76h23.42v102.44h-19.46l-60.59-73.76h9.51v73.76h-23.42Z"/>
        <path class="cls-1" d="M419.16,104.2L464.82,1.76h23.42l45.81,102.44h-24.88l-37.47-90.44h9.37l-37.61,90.44h-24.29ZM441.99,82.25l6.29-18h52.69l6.44,18h-65.42Z"/>
      </g>
      <rect class="cls-1" y="125.12" width="536.11" height="51.74" rx="13.11" ry="13.11"/>
      <g>
        <path class="cls-2" d="M19.59,159.32l5.17-11.49h2.1l5.19,11.49h-2.23l-4.45-10.36h.85l-4.43,10.36h-2.2ZM21.97,156.66l.57-1.67h6.21l.58,1.67h-7.36Z"/>
        <path class="cls-2" d="M40.03,159.49c-.9,0-1.76-.13-2.58-.39-.82-.26-1.47-.59-1.95-.99l.74-1.66c.46.36,1.03.66,1.71.9.68.24,1.37.36,2.08.36.6,0,1.09-.07,1.46-.2.37-.13.65-.31.82-.53.17-.22.26-.48.26-.76,0-.35-.13-.63-.38-.84-.25-.21-.58-.38-.98-.51-.4-.12-.84-.24-1.33-.35-.49-.11-.97-.24-1.46-.39-.49-.15-.93-.34-1.33-.58-.4-.24-.73-.55-.98-.94-.25-.39-.38-.9-.38-1.51s.17-1.2.5-1.72.84-.94,1.53-1.25c.68-.31,1.55-.47,2.6-.47.69,0,1.37.09,2.05.26s1.27.43,1.77.75l-.67,1.66c-.51-.31-1.05-.53-1.59-.68-.55-.15-1.07-.22-1.58-.22-.59,0-1.07.07-1.44.21-.37.14-.63.33-.8.56s-.25.49-.25.79c0,.35.12.63.37.85.25.21.57.38.97.5.4.12.85.24,1.34.35s.98.24,1.47.39c.49.14.93.33,1.33.56.4.23.72.54.97.94.25.39.37.89.37,1.49s-.17,1.18-.5,1.7c-.33.52-.85.94-1.54,1.25s-1.56.47-2.61.47Z"/>
        <path class="cls-2" d="M53.31,159.49c-.9,0-1.76-.13-2.58-.39-.82-.26-1.47-.59-1.95-.99l.74-1.66c.46.36,1.03.66,1.71.9.68.24,1.37.36,2.08.36.6,0,1.09-.07,1.46-.2.37-.13.65-.31.82-.53.17-.22.26-.48.26-.76,0-.35-.13-.63-.38-.84-.25-.21-.58-.38-.98-.51-.4-.12-.84-.24-1.33-.35-.49-.11-.97-.24-1.46-.39-.49-.15-.93-.34-1.33-.58-.4-.24-.73-.55-.98-.94-.25-.39-.38-.9-.38-1.51s.17-1.2.5-1.72.84-.94,1.53-1.25c.68-.31,1.55-.47,2.6-.47.69,0,1.37.09,2.05.26s1.27.43,1.77.75l-.67,1.66c-.51-.31-1.05-.53-1.59-.68-.55-.15-1.07-.22-1.58-.22-.59,0-1.07.07-1.44.21-.37.14-.63.33-.8.56s-.25.49-.25.79c0,.35.12.63.37.85.25.21.57.38.97.5.4.12.85.24,1.34.35s.98.24,1.47.39c.49.14.93.33,1.33.56.4.23.72.54.97.94.25.39.37.89.37,1.49s-.17,1.18-.5,1.7c-.33.52-.85.94-1.54,1.25s-1.56.47-2.61.47Z"/>
        <path class="cls-2" d="M68.42,159.49c-.9,0-1.72-.15-2.48-.44-.75-.29-1.41-.71-1.97-1.24-.56-.53-.99-1.16-1.3-1.87-.31-.72-.46-1.5-.46-2.36s.15-1.64.46-2.36c.31-.72.74-1.34,1.3-1.87.56-.53,1.21-.94,1.97-1.24.76-.3,1.58-.44,2.46-.44s1.72.15,2.47.44c.75.3,1.4.71,1.96,1.24.56.53.99,1.16,1.3,1.87.31.72.46,1.5.46,2.36s-.15,1.64-.46,2.36c-.31.72-.74,1.35-1.3,1.87-.56.53-1.21.94-1.96,1.23-.75.3-1.57.44-2.45.44ZM68.4,157.62c.58,0,1.12-.1,1.61-.29.49-.2.92-.48,1.28-.85.36-.37.64-.79.85-1.28.2-.49.3-1.03.3-1.62s-.1-1.13-.3-1.62c-.2-.49-.48-.91-.85-1.28-.36-.37-.79-.65-1.28-.85-.49-.2-1.03-.29-1.61-.29s-1.11.1-1.6.29-.91.48-1.28.85-.65.79-.85,1.28c-.2.49-.3,1.03-.3,1.62s.1,1.12.3,1.61c.2.49.48.92.85,1.29.36.37.79.65,1.28.85.49.2,1.03.29,1.61.29Z"/>
        <path class="cls-2" d="M85.13,159.49c-.88,0-1.69-.15-2.44-.43-.75-.29-1.4-.7-1.95-1.23-.55-.53-.98-1.16-1.29-1.88-.31-.72-.46-1.51-.46-2.36s.15-1.64.46-2.36c.31-.72.74-1.35,1.3-1.88.56-.53,1.21-.94,1.95-1.23.75-.29,1.56-.43,2.45-.43.94,0,1.8.16,2.58.48s1.43.8,1.97,1.44l-1.38,1.3c-.42-.45-.88-.79-1.4-1.01-.51-.22-1.07-.34-1.67-.34s-1.15.1-1.65.29-.93.48-1.3.84c-.37.36-.65.79-.85,1.28-.2.49-.3,1.03-.3,1.63s.1,1.13.3,1.62c.2.49.49.92.85,1.28.37.36.8.64,1.3.84s1.05.29,1.65.29,1.16-.11,1.67-.34.98-.57,1.4-1.03l1.38,1.31c-.54.62-1.19,1.1-1.97,1.43-.78.33-1.64.49-2.59.49Z"/>
        <path class="cls-2" d="M94.7,159.32v-11.49h2.13v11.49h-2.13Z"/>
        <path class="cls-2" d="M101.27,159.32l5.17-11.49h2.1l5.19,11.49h-2.23l-4.45-10.36h.85l-4.43,10.36h-2.2ZM103.65,156.66l.57-1.67h6.21l.58,1.67h-7.36Z"/>
        <path class="cls-2" d="M119.91,159.32v-9.69h-3.81v-1.81h9.75v1.81h-3.81v9.69h-2.13Z"/>
        <path class="cls-2" d="M130.42,159.32v-11.49h2.13v11.49h-2.13Z"/>
        <path class="cls-2" d="M143.99,159.49c-.9,0-1.72-.15-2.48-.44-.75-.29-1.41-.71-1.97-1.24-.56-.53-.99-1.16-1.3-1.87-.31-.72-.46-1.5-.46-2.36s.15-1.64.46-2.36c.31-.72.74-1.34,1.3-1.87.56-.53,1.21-.94,1.97-1.24.76-.3,1.58-.44,2.46-.44s1.72.15,2.47.44c.75.3,1.4.71,1.96,1.24.56.53.99,1.16,1.3,1.87.31.72.46,1.5.46,2.36s-.15,1.64-.46,2.36c-.31.72-.74,1.35-1.3,1.87-.56.53-1.21.94-1.96,1.23-.75.3-1.57.44-2.45.44ZM143.98,157.62c.58,0,1.12-.1,1.61-.29.49-.2.92-.48,1.28-.85.36-.37.64-.79.85-1.28.2-.49.3-1.03.3-1.62s-.1-1.13-.3-1.62c-.2-.49-.48-.91-.85-1.28-.36-.37-.79-.65-1.28-.85-.49-.2-1.03-.29-1.61-.29s-1.11.1-1.6.29-.91.48-1.28.85-.65.79-.85,1.28c-.2.49-.3,1.03-.3,1.62s.1,1.12.3,1.61c.2.49.48.92.85,1.29.36.37.79.65,1.28.85.49.2,1.03.29,1.61.29Z"/>
        <path class="cls-2" d="M155.39,159.32v-11.49h1.76l7.21,8.85h-.87v-8.85h2.12v11.49h-1.76l-7.21-8.85h.87v8.85h-2.12Z"/>
        <path class="cls-2" d="M184.52,159.49c-.9,0-1.72-.15-2.48-.44-.75-.29-1.41-.71-1.97-1.24-.56-.53-.99-1.16-1.3-1.87-.31-.72-.46-1.5-.46-2.36s.15-1.64.46-2.36c.31-.72.74-1.34,1.3-1.87.56-.53,1.21-.94,1.97-1.24.76-.3,1.58-.44,2.46-.44s1.72.15,2.47.44c.75.3,1.4.71,1.96,1.24.56.53.99,1.16,1.3,1.87.31.72.46,1.5.46,2.36s-.15,1.64-.46,2.36c-.31.72-.74,1.35-1.3,1.87-.56.53-1.21.94-1.96,1.23-.75.3-1.57.44-2.45.44ZM184.5,157.62c.58,0,1.12-.1,1.61-.29.49-.2.92-.48,1.28-.85.36-.37.64-.79.85-1.28.2-.49.3-1.03.3-1.62s-.1-1.13-.3-1.62c-.2-.49-.48-.91-.85-1.28-.36-.37-.79-.65-1.28-.85-.49-.2-1.03-.29-1.61-.29s-1.11.1-1.6.29-.91.48-1.28.85-.65.79-.85,1.28c-.2.49-.3,1.03-.3,1.62s.1,1.12.3,1.61c.2.49.48.92.85,1.29.36.37.79.65,1.28.85.49.2,1.03.29,1.61.29Z"/>
        <path class="cls-2" d="M198.04,159.32h-2.13v-11.49h8.39v1.79h-6.26v9.7ZM197.86,153.12h5.73v1.81h-5.73v-1.81Z"/>
        <path class="cls-2" d="M220.37,159.49c-.9,0-1.76-.13-2.58-.39-.82-.26-1.47-.59-1.95-.99l.74-1.66c.46.36,1.03.66,1.71.9.68.24,1.37.36,2.08.36.6,0,1.09-.07,1.46-.2.37-.13.65-.31.82-.53.17-.22.26-.48.26-.76,0-.35-.13-.63-.38-.84-.25-.21-.58-.38-.98-.51-.4-.12-.84-.24-1.33-.35-.49-.11-.97-.24-1.46-.39-.49-.15-.93-.34-1.33-.58-.4-.24-.73-.55-.98-.94-.25-.39-.38-.9-.38-1.51s.17-1.2.5-1.72.84-.94,1.53-1.25c.68-.31,1.55-.47,2.6-.47.69,0,1.37.09,2.05.26s1.27.43,1.77.75l-.67,1.66c-.51-.31-1.05-.53-1.59-.68-.55-.15-1.07-.22-1.58-.22-.59,0-1.07.07-1.44.21-.37.14-.63.33-.8.56s-.25.49-.25.79c0,.35.12.63.37.85.25.21.57.38.97.5.4.12.85.24,1.34.35s.98.24,1.47.39c.49.14.93.33,1.33.56.4.23.72.54.97.94.25.39.37.89.37,1.49s-.17,1.18-.5,1.7c-.33.52-.85.94-1.54,1.25s-1.56.47-2.61.47Z"/>
        <path class="cls-2" d="M230.09,159.32v-11.49h4.73c1.02,0,1.89.16,2.62.49.73.33,1.29.8,1.68,1.41.39.61.59,1.34.59,2.18s-.2,1.57-.59,2.18c-.39.61-.96,1.07-1.68,1.4-.73.32-1.6.48-2.62.48h-3.55l.95-.97v4.32h-2.13ZM232.23,155.24l-.95-1.02h3.45c.94,0,1.65-.2,2.13-.61.48-.4.71-.97.71-1.69s-.24-1.3-.71-1.69c-.48-.39-1.19-.59-2.13-.59h-3.45l.95-1.05v6.65ZM237.61,159.32l-2.91-4.17h2.28l2.92,4.17h-2.3Z"/>
        <path class="cls-2" d="M245.05,159.32v-11.49h2.13v11.49h-2.13Z"/>
        <path class="cls-2" d="M260.73,159.32v-11.49h2.13v9.69h6.01v1.81h-8.14Z"/>
        <path class="cls-2" d="M271.91,159.32l5.17-11.49h2.1l5.19,11.49h-2.23l-4.45-10.36h.85l-4.43,10.36h-2.2ZM274.29,156.66l.57-1.67h6.21l.58,1.67h-7.36Z"/>
        <path class="cls-2" d="M288.79,159.32v-11.49h1.76l7.21,8.85h-.87v-8.85h2.12v11.49h-1.76l-7.21-8.85h.87v8.85h-2.12Z"/>
        <path class="cls-2" d="M305.04,159.32v-11.49h2.13v11.49h-2.13ZM306.95,156.61l-.12-2.53,6.03-6.26h2.4l-5.01,5.32-1.18,1.3-2.12,2.17ZM313.06,159.32l-4.4-5.24,1.41-1.56,5.48,6.8h-2.5Z"/>
        <path class="cls-2" d="M317.85,159.32l5.17-11.49h2.1l5.19,11.49h-2.23l-4.45-10.36h.85l-4.43,10.36h-2.2ZM320.23,156.66l.57-1.67h6.21l.58,1.67h-7.36Z"/>
        <path class="cls-2" d="M334.73,159.32v-11.49h1.76l7.21,8.85h-.87v-8.85h2.12v11.49h-1.76l-7.21-8.85h.87v8.85h-2.12Z"/>
        <path class="cls-2" d="M362.03,159.49c-.9,0-1.76-.13-2.58-.39-.82-.26-1.47-.59-1.95-.99l.74-1.66c.46.36,1.03.66,1.71.9.68.24,1.37.36,2.08.36.6,0,1.09-.07,1.46-.2.37-.13.65-.31.82-.53.17-.22.26-.48.26-.76,0-.35-.13-.63-.38-.84-.25-.21-.58-.38-.98-.51-.4-.12-.84-.24-1.33-.35-.49-.11-.97-.24-1.46-.39-.49-.15-.93-.34-1.33-.58-.4-.24-.73-.55-.98-.94-.25-.39-.38-.9-.38-1.51s.17-1.2.5-1.72.84-.94,1.53-1.25c.68-.31,1.55-.47,2.6-.47.69,0,1.37.09,2.05.26s1.27.43,1.77.75l-.67,1.66c-.51-.31-1.05-.53-1.59-.68-.55-.15-1.07-.22-1.58-.22-.59,0-1.07.07-1.44.21-.37.14-.63.33-.8.56s-.25.49-.25.79c0,.35.12.63.37.85.25.21.57.38.97.5.4.12.85.24,1.34.35s.98.24,1.47.39c.49.14.93.33,1.33.56.4.23.72.54.97.94.25.39.37.89.37,1.49s-.17,1.18-.5,1.7c-.33.52-.85.94-1.54,1.25s-1.56.47-2.61.47Z"/>
        <path class="cls-2" d="M373.92,159.32v-9.69h-3.81v-1.81h9.75v1.81h-3.81v9.69h-2.13Z"/>
        <path class="cls-2" d="M382.23,159.32l5.17-11.49h2.1l5.19,11.49h-2.23l-4.45-10.36h.85l-4.43,10.36h-2.2ZM384.61,156.66l.57-1.67h6.21l.58,1.67h-7.36Z"/>
        <path class="cls-2" d="M400.86,159.32v-9.69h-3.81v-1.81h9.75v1.81h-3.81v9.69h-2.13Z"/>
        <path class="cls-2" d="M411.37,159.32v-11.49h2.13v11.49h-2.13Z"/>
        <path class="cls-2" d="M423.13,159.49c-.9,0-1.76-.13-2.58-.39-.82-.26-1.47-.59-1.95-.99l.74-1.66c.46.36,1.03.66,1.71.9.68.24,1.37.36,2.08.36.6,0,1.09-.07,1.46-.2.37-.13.65-.31.82-.53.17-.22.26-.48.26-.76,0-.35-.13-.63-.38-.84-.25-.21-.58-.38-.98-.51-.4-.12-.84-.24-1.33-.35-.49-.11-.97-.24-1.46-.39-.49-.15-.93-.34-1.33-.58-.4-.24-.73-.55-.98-.94-.25-.39-.38-.9-.38-1.51s.17-1.2.5-1.72.84-.94,1.53-1.25c.68-.31,1.55-.47,2.6-.47.69,0,1.37.09,2.05.26s1.27.43,1.77.75l-.67,1.66c-.51-.31-1.05-.53-1.59-.68-.55-.15-1.07-.22-1.58-.22-.59,0-1.07.07-1.44.21-.37.14-.63.33-.8.56s-.25.49-.25.79c0,.35.12.63.37.85.25.21.57.38.97.5.4.12.85.24,1.34.35s.98.24,1.47.39c.49.14.93.33,1.33.56.4.23.72.54.97.94.25.39.37.89.37,1.49s-.17,1.18-.5,1.7c-.33.52-.85.94-1.54,1.25s-1.56.47-2.61.47Z"/>
        <path class="cls-2" d="M435.01,159.32v-9.69h-3.81v-1.81h9.75v1.81h-3.81v9.69h-2.13Z"/>
        <path class="cls-2" d="M445.52,159.32v-11.49h2.13v11.49h-2.13Z"/>
        <path class="cls-2" d="M459.03,159.49c-.88,0-1.69-.15-2.44-.43-.75-.29-1.4-.7-1.95-1.23-.55-.53-.98-1.16-1.29-1.88-.31-.72-.46-1.51-.46-2.36s.15-1.64.46-2.36c.31-.72.74-1.35,1.3-1.88.56-.53,1.21-.94,1.95-1.23.75-.29,1.56-.43,2.45-.43.94,0,1.8.16,2.58.48s1.43.8,1.97,1.44l-1.38,1.3c-.42-.45-.88-.79-1.4-1.01-.51-.22-1.07-.34-1.67-.34s-1.15.1-1.65.29-.93.48-1.3.84c-.37.36-.65.79-.85,1.28-.2.49-.3,1.03-.3,1.63s.1,1.13.3,1.62c.2.49.49.92.85,1.28.37.36.8.64,1.3.84s1.05.29,1.65.29,1.16-.11,1.67-.34.98-.57,1.4-1.03l1.38,1.31c-.54.62-1.19,1.1-1.97,1.43-.78.33-1.64.49-2.59.49Z"/>
        <path class="cls-2" d="M468.6,159.32v-11.49h2.13v11.49h-2.13Z"/>
        <path class="cls-2" d="M475.17,159.32l5.17-11.49h2.1l5.19,11.49h-2.23l-4.45-10.36h.85l-4.43,10.36h-2.2ZM477.55,156.66l.57-1.67h6.21l.58,1.67h-7.36Z"/>
        <path class="cls-2" d="M492.05,159.32v-11.49h1.76l7.21,8.85h-.87v-8.85h2.12v11.49h-1.76l-7.21-8.85h.87v8.85h-2.12Z"/>
        <path class="cls-2" d="M511.87,159.49c-.9,0-1.76-.13-2.58-.39-.82-.26-1.47-.59-1.95-.99l.74-1.66c.46.36,1.03.66,1.71.9.68.24,1.37.36,2.08.36.6,0,1.09-.07,1.46-.2.37-.13.65-.31.82-.53.17-.22.26-.48.26-.76,0-.35-.13-.63-.38-.84-.25-.21-.58-.38-.98-.51-.4-.12-.84-.24-1.33-.35-.49-.11-.97-.24-1.46-.39-.49-.15-.93-.34-1.33-.58-.4-.24-.73-.55-.98-.94-.25-.39-.38-.9-.38-1.51s.17-1.2.5-1.72.84-.94,1.53-1.25c.68-.31,1.55-.47,2.6-.47.69,0,1.37.09,2.05.26s1.27.43,1.77.75l-.67,1.66c-.51-.31-1.05-.53-1.59-.68-.55-.15-1.07-.22-1.58-.22-.59,0-1.07.07-1.44.21-.37.14-.63.33-.8.56s-.25.49-.25.79c0,.35.12.63.37.85.25.21.57.38.97.5.4.12.85.24,1.34.35s.98.24,1.47.39c.49.14.93.33,1.33.56.4.23.72.54.97.94.25.39.37.89.37,1.49s-.17,1.18-.5,1.7c-.33.52-.85.94-1.54,1.25s-1.56.47-2.61.47Z"/>
      </g>
    </g>
  </g>
</svg>